<?xml version="1.0" encoding="UTF-8"?>
<svg id="logo" xmlns="http://www.w3.org/2000/svg" viewBox="0 0 209 41">
  <defs>
    <style>
      .cls-1 {
        fill: #0962ba;
      }

      .cls-2 {
        fill: #3f94ca;
      }

      .cls-3 {
        fill: #c7c6c4;
      }
    </style>
  </defs>
  <g>
    <path class="cls-3" d="M10.09,23.47l-2.49,9.29H1L8.34,5.37h10.93c2.09,0,3.84,.39,5.25,1.16,1.4,.77,2.36,1.87,2.86,3.29,.5,1.42,.51,3.04,.03,4.84-.72,2.67-2.24,4.81-4.58,6.41-2.34,1.6-5.18,2.4-8.52,2.4h-4.21Zm1.37-5.1h4.33c1.28,0,2.34-.32,3.18-.96,.84-.64,1.42-1.54,1.73-2.71,.34-1.28,.27-2.3-.21-3.07s-1.32-1.15-2.51-1.17h-4.4l-2.12,7.9Z"/>
    <path class="cls-3" d="M52.79,19.63c-.72,2.67-1.84,5.04-3.39,7.09-1.54,2.06-3.37,3.64-5.5,4.75-2.12,1.11-4.35,1.66-6.68,1.66s-4.26-.54-5.78-1.61c-1.52-1.07-2.52-2.61-2.99-4.6-.48-1.99-.39-4.28,.25-6.87l.41-1.54c.72-2.68,1.85-5.05,3.38-7.1,1.53-2.05,3.37-3.63,5.51-4.75,2.14-1.12,4.38-1.67,6.72-1.67s4.24,.55,5.76,1.65c1.52,1.1,2.52,2.67,2.98,4.71,.46,2.04,.35,4.37-.34,7.01l-.34,1.26Zm-6.41-1.15c.73-2.72,.83-4.79,.3-6.2-.53-1.41-1.64-2.12-3.34-2.12-3.31,0-5.73,2.48-7.24,7.45l-.56,2.01c-.72,2.68-.83,4.75-.32,6.19,.5,1.44,1.63,2.16,3.39,2.16s3.14-.71,4.43-2.13c1.28-1.42,2.29-3.45,3.01-6.11l.34-1.26Z"/>
    <path class="cls-3" d="M76.63,22.55l7.74-17.17h6.55l-13.15,27.39h-6.85l.52-15.61-7.78,15.61h-6.83l1.51-27.39h6.57l-1.46,17.17,8.36-17.17h5.61l-.78,17.17Z"/>
    <path class="cls-3" d="M106.26,21.14h-10.38l-1.75,6.55h12.26l-1.36,5.08h-18.87l7.34-27.39h18.9l-1.37,5.1h-12.3l-1.55,5.78h10.38l-1.31,4.89Z"/>
    <path class="cls-3" d="M120.49,23.08h-3.57l-2.6,9.69h-6.6l7.34-27.39h10.78c3.25,0,5.59,.72,7.04,2.16s1.82,3.48,1.11,6.11c-.51,1.9-1.32,3.48-2.43,4.74-1.11,1.25-2.59,2.27-4.44,3.04l2.76,11.06-.08,.28h-7.07l-2.24-9.69Zm-2.21-5.08h4.18c1.25,0,2.29-.33,3.1-.99,.81-.66,1.37-1.58,1.69-2.76s.25-2.11-.21-2.78c-.46-.67-1.31-1.01-2.55-1.01h-4.18l-2.02,7.54Z"/>
  </g>
  <path class="cls-1" d="M161.39,12.95h-2.48l-.62,3.7h2.48c1.98,0,2.97-.66,2.97-1.97,0-1.15-.79-1.73-2.36-1.73Z"/>
  <path class="cls-1" d="M160.25,21.19h-2.72l-.68,4.06h3.24c1.01,0,1.7-.21,2.08-.63,.38-.42,.57-.88,.57-1.38,0-.61-.21-1.11-.63-1.48-.42-.38-1.04-.56-1.87-.56Z"/>
  <path class="cls-1" d="M191.24,1.05h-35.43c-9.36,0-16.94,7.59-16.94,16.94v1.34c0,9.36,7.59,16.94,16.94,16.94h35.43c9.36,0,16.94-7.59,16.94-16.94v-1.34c0-9.36-7.59-16.94-16.94-16.94Zm-22.27,22.67c0,1.68-.57,3.16-1.71,4.43-1.14,1.27-3.03,1.91-5.68,1.91h-11.81l3.62-21.67h8.95c1.63,0,2.96,.15,4,.44,1.04,.29,1.91,.89,2.61,1.79,.7,.9,1.06,1.95,1.06,3.16,0,1.32-.42,2.45-1.25,3.37-.84,.93-1.96,1.55-3.37,1.87,2.38,.84,3.57,2.41,3.57,4.72Zm7.98,6.33h-6.17l3.62-21.67h6.16l-3.62,21.67Zm20.75-16.75h-4.78l-2.81,16.75h-6.29l2.81-16.75h-4.64l.84-4.98h15.69l-.83,4.98Z"/>
  <polygon class="cls-2" points="92.05 5.32 75.43 31.61 71.95 22.32 58.01 40.9 73.11 10.7 76.6 22.32 83.8 5.32 92.05 5.32"/>
</svg>