<?xml version="1.0" encoding="utf-8"?>
<!-- Generator: Adobe Illustrator 26.0.0, SVG Export Plug-In . SVG Version: 6.00 Build 0)  -->
<svg version="1.1" id="Capa_1" xmlns="http://www.w3.org/2000/svg" xmlns:xlink="http://www.w3.org/1999/xlink" x="0px" y="0px"
	 viewBox="0 0 1366 768" style="enable-background:new 0 0 1366 768;" xml:space="preserve">
<style type="text/css">
	.st0{fill:#F91515;}
	.st1{fill:#324905;}
	.st2{fill:#FFFFFF;}
	.st3{font-family:'MyriadPro-Regular';}
	.st4{font-size:152.2188px;}
	.st5{fill:none;stroke:#000000;stroke-miterlimit:10;}
	.st6{fill:none;stroke:#324905;stroke-width:10;stroke-miterlimit:10;}
</style>
<g>
	<ellipse class="st0" cx="217.5" cy="135.2" rx="76.5" ry="75.2"/>
	<path class="st1" d="M217.5,65c39.4,0,71.5,31.5,71.5,70.2s-32.1,70.2-71.5,70.2S146,173.9,146,135.2S178.1,65,217.5,65 M217.5,55
		c-45,0-81.5,35.9-81.5,80.2s36.5,80.2,81.5,80.2s81.5-35.9,81.5-80.2S262.5,55,217.5,55L217.5,55z"/>
</g>
<g>
	<circle class="st2" cx="709" cy="642" r="3.5"/>
	<path d="M709,639c1.7,0,3,1.3,3,3s-1.3,3-3,3s-3-1.3-3-3S707.3,639,709,639 M709,638c-2.2,0-4,1.8-4,4s1.8,4,4,4s4-1.8,4-4
		S711.2,638,709,638L709,638z"/>
</g>
<g>
	<rect x="366" y="51" class="st0" width="317" height="133"/>
	<path class="st1" d="M678,56v123H371V56H678 M688,46H361v143h327V46L688,46z"/>
</g>
<g>
	<polygon class="st0" points="755.6,576 693.3,468 755.6,360 880.4,360 942.7,468 880.4,576 	"/>
	<path class="st1" d="M877.5,365l59.5,103l-59.5,103H758.5l-59.5-103l59.5-103H877.5 M883.2,355H752.8l-65.2,113l65.2,113h130.5
		l65.2-113L883.2,355L883.2,355z"/>
</g>
<g>
	<polygon class="st1" points="219.8,423.8 206.9,446.4 213.8,421.3 195.4,439.6 208.8,417.3 186.1,430 205,412.2 179.7,418.2 
		202.8,406.2 176.8,405.2 202.2,399.8 177.5,391.8 203.4,393.5 181.7,379.1 206.3,387.8 189.3,368.1 210.6,383 199.5,359.4 
		216,379.6 211.7,353.9 222.1,377.7 224.9,351.9 228.5,377.6 238.2,353.5 234.7,379.3 250.6,358.6 240.3,382.5 261.1,366.9 
		244.7,387.1 269,377.7 247.8,392.8 273.7,390.2 249.2,399 274.8,403.5 248.8,405.4 272.3,416.7 246.8,411.5 266.3,428.7 
		243.2,416.8 257.4,438.6 238.3,420.9 246.1,445.7 232.5,423.5 233.2,449.6 226.1,424.5 219.9,449.8 	"/>
	<path class="st0" d="M225.6,392.5l0.6,4.5l1.7-4.2l-0.6,4.5l2.7-3.6l-1.8,4.1l3.6-2.7l-2.8,3.5l4.2-1.6l-3.7,2.6l4.5-0.4l-4.2,1.5
		l4.4,0.8l-4.5,0.3l4.1,2l-4.4-0.9l3.4,3l-4-2.1l2.5,3.8l-3.3-3.1l1.3,4.3l-2.4-3.8l0.1,4.5l-1.2-4.3l-1.1,4.4l0-4.5l-2.2,3.9
		l1.2-4.3l-3.2,3.2l2.3-3.9l-3.9,2.2l3.3-3.1l-4.4,1.1l4-2.1l-4.5-0.2l4.4-0.9l-4.3-1.4l4.5,0.3l-3.8-2.5l4.3,1.5l-3-3.4l3.7,2.6
		l-1.9-4.1l2.9,3.5l-0.7-4.5l1.8,4.1L225.6,392.5 M224.2,311.2l-5.1,47.3L200.1,315l7.9,46.9l-30.1-36.8l20.2,43l-38.9-27.3l31.1,36
		L145.3,361l39.7,26.2l-47.5-3.1l45.3,14.6l-46.5,9.8l47.5,1.8l-42.1,22l46.2-11.1L153.3,454l41.5-23.1l-24.6,40.7l33.8-33.5
		l-12.7,45.8l23.5-41.4l0.2,47.5l11.5-46.2l13,45.7l-1.4-47.5l24.9,40.5l-14.2-45.4l34.9,32.3l-25.9-39.9l42.3,21.7l-35.7-31.4
		l46.6,9.5L268,409l47.4-3.4l-46.8-8.3l44.7-16.1l-47.3,4.7l38.7-27.6l-44.3,17.3l29.9-37l-38,28.6l18.8-43.7l-28.9,37.8l6.3-47.1
		l-17.6,44.2L224.2,311.2L224.2,311.2z"/>
</g>
<text transform="matrix(1 0 0 1 419.5703 465.0781)" class="st3 st4">Hola Mati</text>
<path class="st5" d="M462,461c115.9-99.6,384.9-288.5,384.9-288.5l192.1,295L462,461z"/>
<polygon class="st6" points="1161,68 1039,226.1 1185,444 1283,243 "/>
<path class="st6" d="M74,687c0,0,27-133,300-133s271,111,271,111"/>
<line class="st6" x1="30" y1="734" x2="793" y2="734"/>
<line class="st6" x1="1009" y1="55" x2="1009" y2="687"/>
<path class="st6" d="M1312,68c0,0,78.9,329.7,13.7,287c-42.7-28-74.7,22-74.7,22s-167,58.4-33,170c24,20,65-112,124.9,7
	c55.3,109.9-110.4,155.6-110.4,155.6v8.6"/>
</svg>
