<?xml version="1.0" encoding="utf-8"?>
<!-- Generator: Adobe Illustrator 26.5.0, SVG Export Plug-In . SVG Version: 6.00 Build 0)  -->
<svg version="1.1"
	 id="svg8" xmlns:cc="http://creativecommons.org/ns#" xmlns:rdf="http://www.w3.org/1999/02/22-rdf-syntax-ns#" xmlns:dc="http://purl.org/dc/elements/1.1/" xmlns:svg="http://www.w3.org/2000/svg"
	 xmlns="http://www.w3.org/2000/svg" xmlns:xlink="http://www.w3.org/1999/xlink" x="0px" y="0px" viewBox="0 0 320 94.1"
	 style="enable-background:new 0 0 320 94.1;" xml:space="preserve">
<style type="text/css">
	.st0{fill:#2042A0;}
</style>
<g id="layer1" transform="translate(-74.251775,-37.24225)">
	<g id="g4906" transform="matrix(0.58354404,0,0,0.58354404,54.015326,8.7948884)">
		<path id="path4586" class="st0" d="M208.6,82.4c-4.7-0.2-9.4-0.1-14.2-0.1c0.7,3.7,1.5,7,1.9,10.4c2.6,26.3-18.1,49.5-44.7,50.1
			c-19.2,0.5-36.8-11.1-43.9-29.1c-0.6-1.5-1.3-2-2.9-2c-16.4,0.1-32.7,0-49.1,0c-0.6,0-1.3,0-2.1,0c0.1,0.8,0.1,1.5,0.2,2.1
			c8.8,41.6,49.8,69.1,91.8,61.4c37.5-6.8,64.7-38.7,65.2-76.7c0.1-4.7-0.6-9.5-1-14.2C209.8,83.7,209.1,82.4,208.6,82.4L208.6,82.4
			z"/>
		<path id="path4588" class="st0" d="M150,127.9c17.5,0.1,31.4-13.6,31.6-30.9c0.1-17-13.8-30.9-30.8-31.1
			c-17.3-0.1-31.4,13.7-31.5,30.9C119.2,113.8,133,127.8,150,127.9z M150.4,80.6c9.2,0,16.5,7.3,16.5,16.5c0,9-7.5,16.3-16.5,16.3
			c-9,0-16.4-7.4-16.4-16.4C134,87.9,141.3,80.7,150.4,80.6L150.4,80.6z"/>
		<path id="path4590" class="st0" d="M359.1,143c0-0.7,0-1.5,0-2.4c-1.6,0-3,0-4.4,0c-4,0-4,0-5,3.8c0,0.1-0.2,0.2-0.4,0.4
			c-3.5-3.6-7.8-5.4-12.8-5.1c-5.1,0.3-9.4,2.3-12.7,6.1c-5.9,6.8-5.9,17.6-0.1,24.5c2.8,3.3,6.3,5.5,10.6,6.1
			c5.7,0.8,10.9-0.3,15.1-5.4c0,2.1,0.1,3.7,0,5.2c-0.5,4.6-3.5,7.6-8.2,8.3c-4.7,0.7-9-1.4-10.8-5.2c-0.2-0.4-0.6-1.1-1-1.1
			c-2.9-0.1-5.9,0-8.8,0c0.7,7,4.8,11.6,12.1,13.7c12.6,3.7,27.2-2.4,26.5-19.5C358.8,162.8,359.1,152.9,359.1,143L359.1,143z
			 M339.4,168.3c-5.9,0-10.1-4.1-10.1-9.9c-0.1-5.9,4.1-10.1,10.1-10.1c5.9,0,10.1,4.1,10.1,10C349.4,164,345.2,168.3,339.4,168.3z"
			/>
		<path id="path4592" class="st0" d="M273.1,127.8c-0.5-1.3-1.2-1.9-2.6-1.8c-2.2,0.1-4.4,0.2-6.7,0c-1.7-0.1-2.3,0.5-2.9,2
			c-6.1,15.5-12.3,31-18.5,46.5c-0.2,0.6-0.4,1.2-0.7,2.1c2.9,0,5.7-0.1,8.4,0c1.3,0,1.9-0.5,2.3-1.7c1.1-2.9,2.3-5.7,3.3-8.6
			c0.4-1.1,0.9-1.4,2.1-1.4c6.1,0,12.2,0.1,18.4,0c1.3,0,1.8,0.4,2.2,1.5c1.1,2.9,2.2,5.9,3.4,8.8c0.2,0.5,0.9,1.2,1.5,1.3
			c3,0.1,6,0,9.3,0c-0.7-1.9-1.4-3.5-2-5.1C284.6,157,278.8,142.4,273.1,127.8z M259.2,157.3c2.5-6.5,5-12.8,7.7-19.7
			c2.7,6.8,5.1,13.2,7.7,19.7C269.3,157.3,264.4,157.3,259.2,157.3z"/>
		<path id="path4594" class="st0" d="M259.1,116.7c6.2,2.1,12.6,2.1,18.8-0.2c7-2.5,11.1-7.7,12.5-15.3c-3.2,0-6.1,0-9.1,0
			c-1.1,0-1.5,0.5-2,1.4c-1.1,1.7-2.2,3.6-3.8,4.8c-5.6,4-14.8,2.2-18.9-3.4c-4.5-6.1-4.4-18.1,0.1-24.2c3.3-4.4,7.9-5.6,13.1-5.1
			c4.8,0.5,8.2,2.9,9.7,7.6c0.1,0.4,0.6,1,1,1c3.2,0.1,6.4,0,9.7,0c-0.1-0.6-0.1-1.1-0.2-1.4c-2.1-9.2-8.3-14.7-18.7-15.8
			c-13.2-1.5-23.5,4.9-26.9,17.4c-1.3,4.8-1.5,9.7-0.5,14.5C245.7,107,250.3,113.7,259.1,116.7L259.1,116.7z"/>
		<path id="path4596" class="st0" d="M386.4,140.1c-11.6-1.8-20.5,4.4-22.3,15.6c-1.7,10.5,4.7,19.8,14.6,21.3
			c10.1,1.6,19.4-3.7,20.8-12.1c-2.6,0-5.1,0-7.6,0c-1.3,0-2,0.3-2.8,1.4c-2.1,2.9-6.1,3.9-9.8,2.5c-3.4-1.3-5.5-4.3-5.4-7.9
			c8.9,0,17.8,0,26.6,0C402.1,150.5,396,141.6,386.4,140.1z M390.6,154.8c-5.5,0-10.9,0-16.6,0c0.6-4.5,4.8-7.6,9.5-7.1
			C387.8,148.1,390.8,151.1,390.6,154.8z"/>
		<path id="path4598" class="st0" d="M516.4,140.9c-6-2.5-12.7-0.9-17.1,3.9c-0.2,0.2-0.4,0.4-0.9,0.8c-0.3-1.8-0.5-3.4-0.8-4.9
			c-2.9,0-5.5,0-8.3,0c0,12,0,23.8,0,35.7c3.2,0,6.3,0,9.5,0c0-0.8,0-1.6,0-2.3c0-5.6-0.1-11.2,0.1-16.7c0-1.7,0.5-3.6,1.3-5.2
			c1.6-3.4,5.5-4.9,9.3-4.1c3.1,0.7,5,3.2,5.3,7c0.1,0.9,0.1,1.9,0.1,2.8c0,5.5,0,10.9,0,16.3c0,0.7,0,1.4,0,2.2c3.3,0,6.4,0,9.9,0
			c-0.3-8.8-0.3-17.4-1-26C523.4,146.1,520.7,142.7,516.4,140.9L516.4,140.9z"/>
		<path id="path4600" class="st0" d="M430.9,140.4c-6.3-1.5-11.8-0.2-16.2,5.5c-0.3-2-0.5-3.5-0.7-5.1c-2.8,0-5.5,0-8.3,0
			c0,12,0,23.8,0,35.7c3.2,0,6.3,0,9.5,0c0-1,0-1.7,0-2.5c0-5.9-0.1-11.8,0.2-17.7c0.2-5.1,4-8.3,8.9-8.2c4.4,0.1,6.8,3.1,6.9,8.4
			c0,0.6,0,1.2,0,1.8c0,5.4,0,10.7,0,16.1c0,0.7,0,1.4,0,2.1c3.4,0,6.4,0,9.5,0c0-7.9,0.3-15.6-0.1-23.3
			C440.2,146.2,436.6,141.7,430.9,140.4L430.9,140.4z"/>
		<path id="path4602" class="st0" d="M106.3,82.3c-0.6,0-1.3,0-2.1,0c-16.1,0-32.2,0-48.3,0c-0.4,0-0.9-0.1-1.2,0
			c-0.6,0.3-1.4,0.8-1.4,1.2c-0.5,4.4-1,8.7-1.5,13.3c17.8,0,35,0,52.2,0C104.8,92,105.6,87.3,106.3,82.3z"/>
		<path id="path4604" class="st0" d="M459,131.3c-2.9,0-5.6,0-8.5,0c-0.3,2.5-0.7,4.9-0.8,7.3c-0.1,1.7-0.8,2.2-2.3,2.1
			c-1.3-0.1-2.6,0-3.9,0c0,2.9,0,5.5,0,8.2c2,0,3.9,0,5.9,0c0,1.1,0,2.1,0,2.9c0.1,5.1,0,10.2,0.3,15.3c0.2,3.8,2.1,6.6,5.6,8.2
			c4.2,1.8,8.6,1.3,13,1.2c0-2.9,0-5.5,0-8.2c-1.8,0-3.4,0-5,0c-3.1-0.1-4.1-1-4.2-4.1c-0.1-3.3,0-6.6-0.1-9.9c0-1.8,0-3.6,0-5.6
			c3.4,0,6.4,0,9.5,0c0-2.8,0-5.3,0-8.1c-3.2,0-6.2,0-9.5,0C459,137.4,459,134.4,459,131.3L459,131.3z"/>
		<path id="path4606" class="st0" d="M345.8,115c0-4.4-0.1-8.7,0-13.1c0.1-6,4.6-10.5,10.7-10.6c0.7,0,1.4,0,2.2,0
			c0-3.6,0-6.9,0-10.3c-5.4,0-9.6,2.2-13,6.7c-0.4-2.3-0.6-4.2-0.9-6.1c-2.9,0-5.7,0-8.5,0c0,12,0,23.8,0,35.7c3.2,0,6.2,0,9.5,0
			C345.8,116.4,345.8,115.7,345.8,115L345.8,115z"/>
		<path id="path4608" class="st0" d="M372.1,114.9c0-4.3,0-8.6,0-12.9c0.1-5.3,3.4-9.3,8.6-10.5c1.4-0.3,2.7-0.3,4.2-0.5
			c0-3.4,0-6.8,0-10.2c-5.5,0-9.5,2.3-13,6.7c-0.3-2.4-0.6-4.2-0.8-6.1c-2.9,0-5.7,0-8.5,0c0,12,0,23.8,0,35.7c3.2,0,6.3,0,9.5,0
			C372.1,116.4,372.1,115.7,372.1,114.9z"/>
		<path id="path4610" class="st0" d="M304.6,147c-0.2-2-0.3-3.4-0.6-4.9c-0.1-0.5-0.6-1.4-1.1-1.4c-2.5-0.1-5.1-0.1-7.6-0.1
			c0,12.2,0,24,0,35.8c3.2,0,6.2,0,9.5,0c0-5.3,0-10.3,0-15.3c0-5.3,3.4-9.3,8.6-10.4c1.4-0.3,2.7-0.3,4.2-0.4c0-3.4,0-6.7,0-10.1
			C312.2,140.1,308.1,142.5,304.6,147L304.6,147z"/>
		<path id="path4612" class="st0" d="M474.8,140.6c-1.6-0.1-2.1,0.4-2.1,2c0.1,10.7,0,21.3,0,32c0,0.6,0.1,1.3,0.1,1.9
			c3.3,0,6.3,0,9.4,0c0-11.9,0-23.8,0-35.8C479.8,140.6,477.3,140.7,474.8,140.6L474.8,140.6z"/>
		<path id="path4614" class="st0" d="M477.8,124.7c-3.6,0-6.1,2.2-6.1,5.5c0,3.2,2.5,5.4,5.9,5.4s5.9-2.2,5.9-5.4
			C483.6,126.9,481.3,124.8,477.8,124.7L477.8,124.7z"/>
		<g id="g4634" transform="matrix(0.26458333,0,0,0.26458333,37.307605,52.229044)">
			<path id="path4616" class="st0" d="M1552.7,140.9c8.3,3.4,15.1,10.2,18.1,19.3c1.9,5.7,2.6,11.7,3,14.7
				c-0.4,13.2-1.9,23.4-9.1,31.4c-6.8,7.6-15.1,11.7-24.9,11c9.8,0.8,18.1-3.4,24.9-11c7.2-7.9,8.7-18.1,9.1-31.4
				c-0.8-3-1.5-9.1-3-14.7C1567.8,151.1,1561,144.3,1552.7,140.9z"/>
			<path id="path4618" class="st0" d="M1545.1,139c0.4,0,0.8,0,1.5,0.4C1546.2,139,1545.5,139,1545.1,139z"/>
			<path id="path4620" class="st0" d="M1548.9,139.7c1.1,0.4,2.3,0.8,3.4,1.1C1551.1,140.5,1550,140.1,1548.9,139.7z"/>
			<path id="path4622" class="st0" d="M1540.9,138.6L1540.9,138.6L1540.9,138.6L1540.9,138.6z"/>
			<path id="path4624" class="st0" d="M1541.7,106.9c-40.4,0-69.9,30.2-69.9,71.4s29.1,71.1,69.2,71.1c40.4,0,69.9-29.9,69.9-71.4
				C1610.9,137.1,1581.4,107.2,1541.7,106.9z M1565.1,206.3c-6.8,7.6-15.1,11.7-24.9,11c-1.5,0-3-0.4-4.5-0.4
				c-12.1-2.3-20.4-9.4-24.6-21.5c-3.8-11.3-3.8-23.1,0-34.4c4.2-13.2,15.9-21.9,29.5-22.3l0,0l0,0l0,0c1.5,0,3,0,4.2,0.4
				c0.4,0,0.8,0,1.5,0.4c0.8,0,1.5,0.4,2.3,0.4c1.1,0.4,2.3,0.8,3.4,1.1h0.4c8.3,3.4,15.1,10.2,18.1,19.3c1.9,5.7,2.6,11.7,3,14.7
				C1573.4,188.1,1572.3,198.3,1565.1,206.3L1565.1,206.3z"/>
			<path id="path4626" class="st0" d="M1540.9,138.6c1.5,0,3,0,4.2,0.4C1543.6,138.6,1542.5,138.6,1540.9,138.6z"/>
			<path id="path4628" class="st0" d="M1511.5,195.3c-3.8-11.3-3.8-23.1,0-34.4c4.2-13.2,15.9-21.9,29.5-22.3l0,0
				c-13.6,0.4-25.3,9.1-29.5,22.3C1507.7,172.2,1507.3,184,1511.5,195.3c3.8,12.1,12.1,19.3,24.2,21.5c1.5,0.4,3,0.4,4.5,0.4
				c-1.5,0-3-0.4-4.2-0.4C1523.6,214.6,1515.2,207,1511.5,195.3z"/>
			<path id="path4630" class="st0" d="M1552.3,140.9h0.4H1552.3z"/>
			<path id="path4632" class="st0" d="M1546.6,139.4c0.8,0,1.5,0.4,2.3,0.4C1548.1,139.4,1547.4,139.4,1546.6,139.4z"/>
		</g>
		<path id="path4636" class="st0" d="M312,118.2c10.7,0,18.5-7.9,18.5-18.9c0-10.9-7.7-18.8-18.3-18.8c-10.7,0-18.5,8-18.5,18.9
			C293.7,110.2,301.4,118.2,312,118.2z M304.2,94.8c1.1-3.5,4.2-5.8,7.8-5.9c3.4-0.1,6.8,2.2,8,5.7c0.5,1.5,0.7,3.1,0.8,3.9
			c-0.1,3.5-0.5,6.2-2.4,8.3c-2.1,2.3-4.6,3.4-7.8,2.8c-3.2-0.6-5.5-2.6-6.5-5.7C303.2,100.9,303.3,97.8,304.2,94.8L304.2,94.8z"/>
		<path id="path4638" class="st0" d="M547.4,177.6c10.7,0,18.5-7.9,18.5-18.9c0-10.9-7.7-18.8-18.3-18.8c-10.7,0-18.5,8-18.5,18.9
			C529,169.6,536.8,177.5,547.4,177.6L547.4,177.6z M539.5,154.2c1.1-3.5,4.2-5.8,7.8-5.9c3.4-0.1,6.8,2.2,8,5.7
			c0.5,1.5,0.7,3.1,0.8,3.9c-0.1,3.5-0.5,6.2-2.4,8.3c-2.1,2.3-4.6,3.4-7.8,2.8c-3.2-0.6-5.5-2.6-6.5-5.7
			C538.6,160.3,538.6,157.2,539.5,154.2L539.5,154.2z"/>
		<path id="path4640" class="st0" d="M407.2,80.6c-10.8-1.2-19.5,6.1-20.4,17.3c-0.9,11.2,6.2,19.6,17.3,20.3
			c8.7,0.6,17.7-5.6,18-12.5c-2.5,0-5,0-7.4,0c-1.2,0-2.1,0.2-2.8,1.3c-2.1,2.9-5.9,3.9-9.6,2.7c-3.4-1.1-5.6-4.1-5.7-7.9
			c8.8,0,17.7,0,26.7,0C424.8,90.2,418.4,81.8,407.2,80.6z M396.9,95.5c0-3.8,3.7-6.9,8.3-7c4.6-0.1,8,2.7,8.3,7
			C407.9,95.5,402.4,95.5,396.9,95.5z"/>
	</g>
</g>
</svg>
