<?xml version="1.0" encoding="utf-8"?>
<!-- Generator: Adobe Illustrator 26.0.0, SVG Export Plug-In . SVG Version: 6.00 Build 0)  -->
<svg version="1.1" id="Capa_1" xmlns="http://www.w3.org/2000/svg" xmlns:xlink="http://www.w3.org/1999/xlink" x="0px" y="0px"
	 viewBox="0 0 134.1 192.2" style="enable-background:new 0 0 134.1 192.2;" xml:space="preserve">
<style type="text/css">
	.st0{fill:#34A853;}
	.st1{fill:#FBBC04;}
	.st2{fill:#4285F4;}
	.st3{fill:#1A73E8;}
	.st4{fill:#EA4335;}
	.st5{fill:#767676;}
</style>
<path class="st0" d="M37.2,142.4c5.6,7.1,10.6,14.5,15.1,22.3c3.9,7.3,5.5,12.3,8.3,21.1c1.7,4.9,3.3,6.3,6.7,6.3
	c3.7,0,5.3-2.5,6.6-6.3c2.7-8.3,4.8-14.7,8.1-20.7c6.5-11.6,14.5-21.9,22.4-31.8c2.1-2.8,16-19.1,22.2-32c0,0,7.7-14.2,7.7-33.9
	c0-18.5-7.6-31.3-7.6-31.3L105,41.8L91.8,76.6l-3.3,4.8l-0.7,0.9L87,83.4l-1.5,1.7l-2.2,2.2l-11.8,9.6l-29.4,17L37.2,142.4z"/>
<path class="st1" d="M6.8,98.9c7.2,16.4,21,30.8,30.4,43.5L87,83.4c0,0-7,9.2-19.7,9.2c-14.2,0-25.6-11.3-25.6-25.6
	c0-9.8,5.9-16.5,5.9-16.5l-33.8,9.1L6.8,98.9z"/>
<path class="st2" d="M87.5,3c16.5,5.3,30.7,16.5,39.2,33L87,83.4c0,0,5.9-6.8,5.9-16.6c0-14.6-12.3-25.5-25.6-25.5
	c-12.6,0-19.8,9.2-19.8,9.2V20.6L87.5,3z"/>
<path class="st3" d="M16,23.9C25.8,12.1,43.2,0,67.1,0c11.6,0,20.4,3,20.4,3l-40,47.5H19.2L16,23.9z"/>
<path class="st4" d="M6.8,98.9c0,0-6.6-12.9-6.6-31.7C0.2,49.5,7.1,34,16,23.9l31.6,26.6L6.8,98.9z"/>
<g>
	<path class="st5" d="M686.6,155.8v-101h13l35.1,61.5h0.6l35.1-61.5h13v101h-13v-60l0.6-16.9h-0.6l-31.6,55.4h-7.6l-31.6-55.4H699
		l0.6,16.9v60L686.6,155.8z M821.3,157.9c-7.3,0-13.5-2.1-18.4-6.3c-4.9-4.2-7.4-9.8-7.4-16.8c0-7.6,2.9-13.4,8.7-17.7
		c5.8-4.3,13-6.4,21.5-6.4c7.6,0,13.9,1.4,18.8,4.2v-2c0-5.1-1.7-9.1-5.2-12.2c-3.5-3.1-7.8-4.6-12.8-4.6c-3.8,0-7.2,0.9-10.2,2.6
		c-3.1,1.8-5.1,4.2-6.3,7.3l-11.9-5.1c1.6-4.1,4.8-7.9,9.4-11.5c4.7-3.6,10.9-5.3,18.6-5.3c8.8,0,16.2,2.6,22,7.8s8.7,12.5,8.7,21.9
		v41.8h-12.4v-9.6H844C838.8,154,831.2,157.9,821.3,157.9L821.3,157.9z M823.4,146.1c5.4,0,10.2-2,14.6-6c4.4-4,6.6-8.7,6.6-14.2
		c-3.7-3-9.2-4.5-16.5-4.5c-6.3,0-11.1,1.4-14.2,4.1c-3.2,2.7-4.8,5.9-4.8,9.6c0,3.4,1.5,6.1,4.4,8
		C816.3,145.1,819.7,146.1,823.4,146.1L823.4,146.1z M905.6,157.9c-5.3,0-10-1.1-14.2-3.4c-4.2-2.3-7.3-5.1-9.4-8.5h-0.6l0.6,9.6
		v30.5h-13V86.6h12.4v9.6h0.6c2.1-3.4,5.2-6.2,9.4-8.5c4.2-2.3,8.9-3.4,14.2-3.4c8.9,0,16.6,3.5,23.1,10.6s9.7,15.8,9.7,26.2
		s-3.2,19.2-9.7,26.2C922.3,154.4,914.5,157.9,905.6,157.9L905.6,157.9z M903.5,146.1c6,0,11.2-2.3,15.5-6.8
		c4.3-4.5,6.5-10.6,6.5-18.1c0-7.5-2.2-13.6-6.5-18.1c-4.3-4.5-9.5-6.8-15.5-6.8c-6.1,0-11.3,2.3-15.6,6.8
		c-4.3,4.5-6.4,10.6-6.4,18.2s2.1,13.7,6.4,18.2C892.2,143.9,897.4,146.2,903.5,146.1L903.5,146.1z M973,157.9
		c-7.7,0-14.1-1.9-19.1-5.6s-8.7-8.5-11.1-14.1l11.6-4.8c3.7,8.7,9.9,13,18.8,13c4,0,7.4-0.9,9.9-2.6c2.6-1.8,3.9-4.1,3.9-7.1
		c0-4.5-3.2-7.6-9.5-9.2l-14-3.4c-4.4-1.1-8.6-3.3-12.6-6.4c-3.9-3.1-5.9-7.4-5.9-12.8c0-6.1,2.7-11.1,8.1-14.9
		c5.4-3.8,11.8-5.7,19.3-5.7c6.1,0,11.6,1.4,16.4,4.2c4.7,2.7,8.3,6.9,10.3,11.9l-11.3,4.7c-2.5-6.1-7.8-9.2-15.8-9.2
		c-3.9,0-7.1,0.8-9.7,2.4c-2.6,1.6-3.9,3.8-3.9,6.5c0,3.9,3,6.6,9.2,8l13.7,3.2c6.5,1.5,11.3,4.1,14.4,7.8s4.7,7.8,4.7,12.4
		c0,6.2-2.5,11.3-7.6,15.5C987.5,155.9,981,158,973,157.9L973,157.9z M302,95.6h-53.2v15.8h37.8c-1.9,22.1-20.3,31.6-37.7,31.6
		c-22.9,0.1-41.6-18.4-41.7-41.3c0-0.2,0-0.5,0-0.7c0-23.9,18.5-42.3,41.7-42.3c17.9,0,28.5,11.4,28.5,11.4l11.1-11.5
		c0,0-14.2-15.8-40.1-15.8c-33,0-58.5,27.8-58.5,57.9c0,29.4,24,58.2,59.3,58.2c31.1,0,53.8-21.3,53.8-52.8
		C303,99.5,302.1,95.6,302,95.6L302,95.6z"/>
	<g>
		<path id="B" class="st5" d="M345.7,84.4c-21.8,0-37.5,17.1-37.5,37c0,20.2,15.2,37.6,37.8,37.6c20.4,0,37.2-15.6,37.2-37.2
			C383.2,97.1,363.7,84.4,345.7,84.4L345.7,84.4z M346,99c10.7,0,20.9,8.7,20.9,22.7c0,13.7-10.1,22.6-21,22.6
			c-11.9,0-21.3-9.5-21.3-22.7C324.6,108.7,333.9,99,346,99L346,99z"/>
	</g>
	<g>
		<path id="B_00000157294669434817260880000003678150147260781499_" class="st5" d="M426.9,84.4c-21.8,0-37.5,17.1-37.5,37
			c0,20.2,15.2,37.6,37.8,37.6c20.4,0,37.2-15.6,37.2-37.2C464.4,97.1,444.9,84.4,426.9,84.4L426.9,84.4z M427.1,99
			c10.7,0,20.9,8.7,20.9,22.7c0,13.7-10.1,22.6-21,22.6c-11.9,0-21.3-9.5-21.3-22.7C405.8,108.7,415,99,427.1,99L427.1,99z"/>
	</g>
	<path class="st5" d="M506.8,84.4c-20,0-35.8,17.6-35.8,37.3c0,22.4,18.3,37.3,35.5,37.3c10.6,0,16.3-4.2,20.5-9.1v7.4
		c0,12.9-7.8,20.6-19.7,20.6c-11.4,0-17.1-8.5-19.1-13.3l-14.3,6c5.1,10.8,15.3,22,33.5,22c19.9,0,35.1-12.6,35.1-38.9v-67h-15.6
		v6.3C522.1,87.7,515.5,84.4,506.8,84.4L506.8,84.4z M508.3,99c9.8,0,19.9,8.4,19.9,22.7c0,14.6-10.1,22.6-20.1,22.6
		c-10.7,0-20.6-8.7-20.6-22.5C487.4,107.5,497.7,99,508.3,99L508.3,99z M612.3,84.4c-18.9,0-34.8,15-34.8,37.2
		c0,23.5,17.7,37.4,36.6,37.4c15.8,0,25.5-8.6,31.2-16.4l-12.8-8.6c-3.3,5.2-8.9,10.3-18.3,10.3c-10.5,0-15.3-5.7-18.3-11.3l50-20.8
		l-2.6-6C638.5,94.3,627.3,84.4,612.3,84.4L612.3,84.4z M613,98.7c6.8,0,11.7,3.6,13.8,8l-33.4,14C591.9,109.8,602.2,98.7,613,98.7
		L613,98.7z M553.6,156.8h16.4v-110h-16.4V156.8z"/>
</g>
</svg>
