<?xml version="1.0" encoding="UTF-8"?>
<!DOCTYPE svg PUBLIC "-//W3C//DTD SVG 1.1//EN" "http://www.w3.org/Graphics/SVG/1.1/DTD/svg11.dtd">
<!-- Creator: CorelDRAW -->
<svg xmlns="http://www.w3.org/2000/svg" xml:space="preserve" width="500px" height="250px" style="shape-rendering:geometricPrecision; text-rendering:geometricPrecision; image-rendering:optimizeQuality; fill-rule:evenodd; clip-rule:evenodd"
viewBox="0 0 500 250">
 <defs>
  <style type="text/css">
   <![CDATA[
    .fil1 {fill:black}
    .fil2 {fill:#FF1000}
    .fil0 {fill:white}
   ]]>
  </style>
 </defs>
 <g id="Contorno">
  <metadata id="CorelCorpID_0Corel-Layer"/>
  <g id="_157974616">
   <path id="_157974640" class="fil0" d="M9.19727 237.597c0,-76.2014 0,-152.402 0,-228.524 160.173,0 320.347,0 480.599,0 0,76.1223 0,152.323 0,228.524 -160.252,0 -320.426,0 -480.599,0z"/>
   <path id="_157974520" class="fil1" d="M20.6953 226.655c0,-26.6434 0,-53.3647 0,-80.0873 152.64,0 305.28,0 458,0 0,26.6434 0,53.3647 0,80.0873 -152.64,0 -305.28,0 -458,0z"/>
   <path id="_157974736" class="fil0" d="M261.747 205.484c-1.90276,-0.951972 -1.90276,-0.951972 -4.43978,-2.69647 -6.89884,-8.5642 -13.7977,-17.1272 -20.6174,-25.6123 0,7.21656 0,14.4319 0,21.7264 0.159449,0.793703 0.396852,1.58623 0.635435,2.45906 0.792522,1.02992 1.9819,1.90276 2.2193,2.53702 -3.17127,0 -6.34254,0 -9.51499,0 0,-0.317718 0,-0.55512 0,-0.793703 1.11024,-0.95079 1.82363,-1.90276 2.45788,-3.17127 0,-26.9599 0,-26.9599 -0.237402,-27.991 -0.713388,-1.10906 -1.11024,-1.66418 -2.14135,-2.45788 2.61733,0 5.23348,0 7.85081,0 1.50591,2.29961 1.50591,2.29961 19.982,25.5332 0,-7.21656 0.0791341,-14.3528 0.158268,-21.489 -0.396852,-1.74449 -0.872837,-2.7756 -2.45788,-3.72639 0,-0.238583 0,-0.396852 0,-0.55512 3.09214,0 6.18427,0 9.27759,0 0,0.158268 0,0.316536 0,0.55512 -1.82481,1.03111 -2.06221,1.66536 -2.5382,3.72639 -0.0791341,10.6252 -0.158268,21.2505 -0.158268,31.956 -0.158268,0 -0.317718,0 -0.475986,0z"/>
   <path id="_45764128" class="fil0" d="M284.742 204.69c-6.81853,-1.34764 -11.8146,-3.013 -15.7796,-8.95987 -3.80552,-11.4981 -2.14016,-21.8847 10.2296,-26.6422 5.7886,-0.951972 9.99098,-0.55512 15.8587,0.474805 0,2.06221 0,4.20356 0,6.34372 -11.5772,-5.7886 -21.8847,-2.14016 -21.8847,11.5772 0.316536,1.42678 0.713388,2.85473 1.11024,4.28151 3.48781,7.85081 11.0209,9.19845 18.6331,6.97797 3.96497,-1.90276 3.96497,-1.90276 4.7575,-1.9819 -0.871656,2.06103 -1.74449,4.20238 -2.61615,6.34254 -3.40985,1.11024 -6.81971,1.42796 -10.3087,1.58623z"/>
   <path id="_158548512" class="fil0" d="M315.905 204.69c-1.50591,-0.316536 -3.013,-0.634254 -4.51891,-0.95079 -11.8146,-4.59923 -15.8587,-15.0662 -10.467,-26.5643 7.37365,-9.27641 18.4749,-11.9729 28.8627,-5.31262 8.72247,7.45396 9.19845,19.0312 1.50709,27.5942 -5.07521,3.8067 -9.19845,4.7575 -15.3839,5.23348z"/>
   <path id="_158548488" class="fil0" d="M162.314 203.898c0.237402,-0.634254 1.11024,-1.26851 1.74449,-2.37875 1.50591,-8.64333 0.475986,-18.9508 0.475986,-27.7524 -0.317718,-1.82481 -0.55512,-3.09332 -2.06221,-4.28269 5.86774,0 12.3697,-0.713388 18.0792,0.396852 6.026,2.61615 7.45396,10.3075 0.792522,13.4008 0,0.158268 0,0.316536 0,0.55512 2.45788,0.395671 4.12324,1.74449 5.86774,3.32954 3.33072,6.26459 1.66536,10.467 -3.64726,14.5902 -6.58112,2.85473 -14.1934,2.06221 -21.2505,2.14135z"/>
   <path id="_158548632" class="fil0" d="M190.858 203.898c0.475986,-0.872837 0.475986,-0.872837 2.69647,-2.85473 3.88584,-9.67326 7.7705,-19.2686 11.7355,-28.8627 0,-1.42796 -0.317718,-1.90276 -1.34764,-2.69647 2.85473,-0.0791341 5.70829,-0.158268 8.64215,-0.237402 3.8067,9.59412 7.61223,19.1894 11.4189,28.8627 0.792522,1.26851 1.58623,2.61615 2.45788,3.96497 0.713388,0.55512 1.74449,0.95079 1.9819,1.82363 -3.72639,0 -7.45278,0 -11.1,0 0,-0.793703 1.02992,-1.18937 1.58504,-1.58623 0,-3.72639 -2.22048,-7.84963 -3.48899,-11.3386 -4.43978,0 -8.8016,0 -13.1622,0 -1.18937,3.48899 -2.93387,7.13624 -3.33072,10.7835 0.872837,1.11024 1.50709,1.50709 1.74449,2.14135 -3.32954,0 -6.58112,0 -9.83271,0z"/>
   <path id="_158548728" class="fil1" d="M315.349 200.488c-8.32562,-3.33072 -10.8626,-9.039 -10.4658,-17.7615 0.713388,-2.5382 1.9819,-4.59923 3.32954,-6.81971 13.5591,-10.5461 26.8808,4.36182 20.6162,18.5552 -4.28151,5.23348 -6.89766,5.7886 -13.48,6.026z"/>
   <path id="_158548800" class="fil1" d="M175.317 199.933c-1.74449,-0.237402 -3.40985,-0.396852 -5.07521,-0.55512 0,-4.28151 0,-8.48388 0,-12.6863 6.81971,0 11.2595,-0.396852 12.8457,6.89766 -1.11024,4.7575 -3.32954,5.5512 -7.7705,6.34372z"/>
   <path id="_158548872" class="fil1" d="M203.864 186.692c1.58504,-4.12324 3.2504,-8.24766 4.91576,-12.2906 1.58623,4.04293 3.17127,8.16735 4.83663,12.2906 -3.2504,0 -6.50199,0 -9.75239,0z"/>
   <path id="_158483208" class="fil1" d="M170.242 183.043c0,-3.40867 0,-6.73939 0,-10.0701 5.70947,0 9.35672,-0.475986 9.35672,6.10632 -2.06103,3.64726 -5.55002,3.64726 -9.35672,3.96379z"/>
   <path id="_158483280" class="fil2" d="M20.6953 134.912c0,-38.1403 0,-76.2806 0,-114.421 152.64,0 305.28,0 458,0 0,38.1403 0,76.2806 0,114.421 -152.64,0 -305.28,0 -458,0z"/>
   <path id="_158548704" class="fil0" d="M268.567 102.957c-2.29961,-1.82363 -4.59923,-3.64726 -6.66144,-5.70947 -4.9949,-13.004 -9.99098,-26.008 -14.9067,-39.0119 -1.03111,-1.42796 -2.06103,-2.85473 -3.013,-4.20238 3.48899,0 7.05711,0 10.6252,0 0.0791341,1.02992 0.158268,2.06103 0.317718,3.17127 4.12324,11.4178 8.24648,22.8367 12.3697,34.3336 0.158268,0 0.316536,0 0.474805,0 3.48899,-9.35554 6.97797,-18.7123 10.467,-27.9899 0.713388,-3.25159 2.29961,-7.13624 -1.42678,-8.95987 0,-0.238583 0,-0.396852 0,-0.55512 3.56812,0 7.13624,0 10.7835,0 -6.18427,16.2544 -12.3697,32.5891 -18.4749,48.9238 -0.238583,0 -0.396852,0 -0.55512,0z"/>
   <path id="_158483424" class="fil0" d="M64.7825 101.847c-5.23348,-0.951972 -5.23348,-0.951972 -9.04019,-2.06103 -0.792522,-2.93387 -1.58504,-5.86774 -2.29961,-8.8016 0.159449,-0.0803152 0.317718,-0.0803152 0.55512,-0.0803152 6.34372,4.7575 24.8989,10.3087 24.8989,-3.013 -0.475986,-1.34764 -0.475986,-1.34764 -1.42796,-2.85473 -6.10514,-5.31262 -14.5902,-6.97679 -20.3776,-12.7654 -9.75357,-16.3347 14.1142,-23.1544 26.008,-17.7627 -0.0791341,2.69647 -0.0791341,5.39293 -0.0791341,8.08821 -5.63033,-4.67836 -14.1934,-6.42285 -19.3477,-0.55512 -1.82363,5.47206 2.37875,7.37483 6.18427,9.83271 5.94687,2.85473 14.1934,5.39175 16.969,12.052 1.74449,9.67444 -4.9949,15.0662 -13.7965,17.5241 -2.7756,0.0791341 -5.5512,0.238583 -8.24648,0.396852z"/>
   <path id="_158483496" class="fil0" d="M107.125 101.847c-6.66144,-1.58623 -9.75357,-3.48899 -13.1634,-9.19845 -1.74449,-10.7835 -0.95079,-22.3607 -1.02992,-33.3025 -0.396852,-1.74449 -1.03111,-4.28269 -3.01418,-4.7575 0,-0.238583 0,-0.396852 0,-0.55512 4.52009,0 9.11932,0 13.7185,0 -0.951972,2.2193 -2.61733,2.69528 -3.013,5.55002 0,8.48388 0,17.0481 0,25.6123 1.58504,10.4658 10.0701,14.5099 19.2686,8.40475 1.34764,-1.34764 2.77442,-3.013 3.17127,-4.91576 0,-9.91184 0,-19.8237 0,-29.6564 -0.396852,-1.82363 -1.11024,-3.80552 -3.013,-4.43978 0,-0.238583 0,-0.396852 0,-0.55512 4.52009,0 9.11814,0 13.7174,0 -0.237402,0.55512 -1.42678,1.50591 -2.14016,2.45788 -0.635435,2.06103 -0.635435,2.06103 -0.872837,4.12324 0,11.1804 0,22.3607 0,33.6202 0.317718,2.29961 0.713388,3.40985 1.90276,5.39175 0.872837,0.55512 0.872837,0.55512 1.11024,1.18937 -3.56812,0 -7.05711,0 -10.5461,0 -0.158268,-1.42678 -0.237402,-2.77442 -0.316536,-4.12324 -4.44096,4.44096 -9.67444,4.7575 -15.7796,5.15435z"/>
   <path id="_158483568" class="fil0" d="M139.319 100.816c0.316536,-0.713388 0.634254,-0.871656 1.42678,-1.34764 1.34764,-2.61615 1.34764,-2.61615 1.58623,-3.96497 0,-12.052 0,-24.1052 0,-36.1572 -0.475986,-2.14135 -0.951972,-3.72757 -3.013,-4.7575 0,-0.238583 0,-0.396852 0,-0.55512 9.91184,0 21.2505,-1.90394 29.9729,3.88466 7.21538,8.16735 2.77442,16.8107 -5.86774,21.0922 -3.96497,0.792522 -7.45396,1.03111 -11.4189,0.158268 0,-0.237402 0,-0.395671 0,-0.55512 5.63033,-0.395671 10.0701,-2.93387 12.2906,-8.16617 0.634254,-10.2296 -5.39175,-11.3398 -14.3516,-10.6264 0,11.4981 0,23.0753 0.0791341,34.6513 0.55512,2.37993 0.55512,2.37993 1.42678,4.04411 1.90394,1.66536 1.90394,1.66536 2.14135,2.29961 -4.7575,0 -9.51499,0 -14.2725,0z"/>
   <path id="_158483640" class="fil0" d="M175.793 100.816c0.475986,-0.95079 1.50591,-1.50591 2.22048,-2.37875 0.237402,-0.792522 0.474805,-1.58504 0.792522,-2.37875 0,-12.4489 0,-24.8977 0,-37.2674 -0.396852,-1.74449 -1.11024,-3.72757 -3.013,-4.20238 0,-0.238583 0,-0.396852 0,-0.55512 8.8016,-0.0803152 17.6032,-0.159449 26.4839,-0.238583 0,2.7756 0,5.5512 0,8.40475 -5.39175,-3.48781 -9.27759,-2.69528 -15.6213,-2.37875 0,4.28269 0,8.64333 0,13.0052 3.48899,0 8.24648,0.395671 11.6563,-0.55512 0,2.61615 0,5.23348 0,7.92877 -0.634254,-0.237402 -1.03111,-0.871656 -2.14135,-1.50591 -3.013,-0.793703 -6.34254,-0.55512 -9.51499,-0.634254 0,5.55002 0,11.1 0,16.6512 7.77168,0.237402 14.7485,1.9819 21.2505,-3.17245 0.238583,-0.0791341 0.55512,-0.0791341 0.872837,-0.0791341 -1.03111,3.09332 -2.06221,6.18545 -3.09214,9.35672 -9.99098,0 -19.982,0 -29.8938,0z"/>
   <path id="_158462352" class="fil0" d="M211.476 100.816c0.316536,-0.713388 0.634254,-0.871656 1.42678,-1.34764 1.34764,-2.61615 1.34764,-2.61615 1.58623,-3.96497 0,-11.9729 0,-23.9469 0,-35.9198 -0.159449,-0.792522 -0.317718,-1.58623 -0.475986,-2.37875 -1.74449,-2.29961 -2.29961,-2.61615 -2.53702,-3.17127 11.4178,0 34.8096,-3.48899 31.082,15.3036 -2.29843,4.43978 -5.55002,6.73939 -9.99098,8.64215 0,0.238583 0,0.475986 0,0.714569 6.5823,8.24648 12.0532,15.8587 20.9339,21.567 0,0.159449 0,0.317718 0,0.55512 -5.7886,0 -9.75239,0.396852 -14.4308,-2.93387 -5.47206,-6.89766 -11.2607,-13.8756 -15.7004,-21.6473 7.29451,-0.55512 15.3036,-6.18427 10.9418,-14.0351 -3.2504,-3.72639 -7.53191,-3.72639 -12.2103,-2.85355 0,12.052 0,24.1052 0.0791341,36.1572 1.03111,3.17245 1.03111,3.17245 1.50591,3.96497 0.714569,0.396852 1.34882,0.55512 1.58623,1.34764 -4.59923,0 -9.19845,0 -13.7965,0z"/>
   <path id="_158462424" class="fil0" d="M291.878 100.816c0,-1.02992 1.58623,-1.9819 2.22048,-2.61615 0.238583,-1.34764 0.475986,-2.69647 0.793703,-3.96497 0,-11.3386 0,-22.5981 0,-33.8588 -0.238583,-1.11024 -0.396852,-2.14016 -0.55512,-3.17127 -1.66536,-2.22048 -2.29961,-2.61615 -2.45906,-3.17127 4.44096,0 8.96105,0 13.48,0 -1.66418,1.82363 -2.14016,2.77442 -2.85355,4.9949 0,12.2115 0,24.502 0,36.7926 0.634254,2.37875 1.90276,3.17127 2.85355,4.9949 -4.51891,0 -9.039,0 -13.48,0z"/>
   <path id="_158462496" class="fil0" d="M310.592 100.816c0.238583,-0.634254 0.238583,-0.634254 2.06221,-2.53702 0.713388,-1.9819 0.713388,-1.9819 0.951972,-4.36064 0,-11.8158 1.02992,-24.7406 -0.475986,-36.4761 -0.872837,-1.18937 -1.74449,-2.29961 -2.5382,-3.40867 8.72247,-0.0803152 17.4449,-0.159449 26.1674,-0.238583 0,2.7756 0,5.5512 0,8.40475 -4.67836,-3.48781 -9.99098,-2.93387 -15.5422,-2.37875 0,4.28269 0,8.64333 0,13.0052 3.48899,0 8.16735,0.395671 11.5772,-0.55512 0,2.61615 0,5.23348 0,7.92877 -0.158268,0 -0.316536,0 -0.475986,0 -2.06103,-3.17127 -7.84963,-2.06103 -11.1012,-2.14016 0,5.47088 0.0803152,10.9418 0.159449,16.4127 8.32562,0.872837 14.3516,1.74449 21.2505,-3.09214 0.237402,-0.0791341 0.475986,-0.0791341 0.792522,-0.0791341 -1.11024,3.17127 -2.14016,6.34372 -3.17127,9.51499 -9.91184,0 -19.8237,0 -29.6564,0z"/>
   <path id="_158462568" class="fil0" d="M346.274 100.816c0,-0.237402 0,-0.395671 0,-0.55512 2.85473,-1.42678 2.85473,-3.96379 3.33072,-6.81853 0,-30.1324 0,-30.1324 -0.317718,-34.8899 -0.475986,-1.66536 -1.18937,-3.56812 -3.013,-3.96379 0,-0.238583 0,-0.396852 0,-0.55512 4.59923,0 9.19845,0 13.7977,0 -0.55512,1.42678 -2.22048,2.85355 -2.85473,4.51891 -0.0791341,12.0532 -0.0791341,24.1052 -0.0791341,36.1584 6.18427,0.237402 11.8937,1.42678 17.6823,-0.951972 3.80552,-2.53702 3.80552,-2.53702 4.51891,-2.69528 -1.26851,3.17127 -2.45788,6.34254 -3.64726,9.51499 -9.83153,0.0791341 -19.6642,0.158268 -29.4178,0.237402z"/>
   <path id="_158462640" class="fil0" d="M382.273 100.816c0,-0.792522 1.03111,-1.18937 1.58623,-1.58504 1.11024,-2.37875 1.11024,-2.37875 1.42796,-3.72757 0,-12.052 0,-24.1052 0,-36.1572 -0.55512,-2.14135 -0.55512,-2.14135 -1.42796,-3.96497 -0.713388,-0.317718 -1.34764,-0.634254 -1.58623,-1.34764 4.52009,0 9.11932,0 13.7185,0 -0.238583,0.55512 -1.50709,1.50591 -2.29961,2.61615 -0.317718,1.03111 -0.55512,2.06221 -0.792522,3.17127 -0.0803152,11.5772 -0.0803152,23.2335 -0.0803152,34.8899 6.18545,0.237402 11.8949,1.42678 17.6835,-0.951972 4.28151,-2.61615 4.28151,-2.61615 4.7575,-2.69528 -1.26969,3.2504 -2.45906,6.50199 -3.64844,9.75239 -9.83153,0 -19.5851,0 -29.3387,0z"/>
   <path id="_158462712" class="fil0" d="M417.956 100.816c0,-0.237402 0,-0.395671 0,-0.55512 1.90276,-0.713388 2.37875,-2.45788 3.013,-4.20238 0,-12.4489 0,-24.8977 0,-37.2674 -0.474805,-1.66536 -1.18937,-3.8067 -3.013,-4.20238 0,-0.238583 0,-0.396852 0,-0.55512 8.8016,-0.0803152 17.6032,-0.159449 26.4048,-0.238583 0,2.7756 0,5.5512 0,8.40475 -5.07403,-3.17127 -9.75239,-2.93387 -15.6201,-2.37875 0,4.28269 0,8.64333 0,13.0052 3.48899,0 8.24648,0.395671 11.6552,-0.55512 0,2.61615 0,5.23348 0,7.92877 -0.634254,-0.237402 -0.792522,-0.792522 -2.14016,-1.50591 -3.013,-0.793703 -6.34372,-0.55512 -9.51499,-0.634254 0,5.55002 0,11.1 0,16.6512 8.88074,0.316536 13.9548,1.66536 21.2505,-3.17245 0.237402,-0.0791341 0.55512,-0.0791341 0.871656,-0.0791341 -1.02992,3.09332 -2.06103,6.18545 -3.09214,9.35672 -9.99098,0 -19.9028,0 -29.8147,0z"/>
  </g>
 </g>
</svg>
