<?xml version="1.0" encoding="utf-8"?>
<!-- Generator: Adobe Illustrator 26.0.0, SVG Export Plug-In . SVG Version: 6.00 Build 0)  -->
<svg version="1.1" id="Layer_1" xmlns="http://www.w3.org/2000/svg" xmlns:xlink="http://www.w3.org/1999/xlink" x="0px" y="0px"
	 viewBox="0 0 128.9 145.7" style="enable-background:new 0 0 128.9 145.7;" xml:space="preserve">
<style type="text/css">
	.st0{fill:#FF004F;}
	.st1{fill:#00F2EA;}
</style>
<g>
	<path class="st0" d="M95.6,52.6c9.4,6.7,20.9,10.7,33.4,10.7V39.3c-2.4,0-4.7-0.2-7-0.7v18.8c-12.4,0-24-4-33.4-10.7v48.9
		c0,24.4-19.8,44.2-44.3,44.2c-9.1,0-17.6-2.8-24.6-7.5c8,8.2,19.2,13.3,31.7,13.3c24.5,0,44.3-19.8,44.3-44.2L95.6,52.6L95.6,52.6z
		 M104.2,28.4c-4.8-5.2-8-12-8.6-19.5V5.8h-6.6C90.6,15.4,96.3,23.5,104.2,28.4L104.2,28.4z M35.1,113.6c-2.7-3.5-4.1-7.8-4.1-12.3
		c0-11.2,9.1-20.2,20.3-20.2c2.1,0,4.2,0.3,6.1,0.9V57.6c-2.3-0.3-4.7-0.5-7-0.4v19c-2-0.6-4.1-0.9-6.1-0.9C33,75.3,24,84.4,24,95.5
		C24,103.4,28.5,110.3,35.1,113.6z"/>
	<path d="M88.5,46.8c9.4,6.7,20.9,10.7,33.4,10.7V38.6c-6.9-1.5-13.1-5.1-17.7-10.2c-7.9-4.9-13.6-13.1-15.3-22.6H71.5v95.6
		c0,11.1-9.1,20.2-20.3,20.2c-6.6,0-12.4-3.1-16.1-8c-6.6-3.3-11.1-10.2-11.1-18.1c0-11.2,9.1-20.2,20.3-20.2c2.1,0,4.2,0.3,6.1,0.9
		v-19C26.3,57.7,7,77.3,7,101.4c0,12,4.8,23,12.6,30.9c7,4.7,15.5,7.5,24.6,7.5c24.4,0,44.3-19.8,44.3-44.2L88.5,46.8L88.5,46.8z"/>
	<path class="st1" d="M121.9,38.6v-5.1c-6.3,0-12.4-1.7-17.7-5.1C108.9,33.6,115.1,37.1,121.9,38.6z M88.9,5.8
		c-0.2-0.9-0.3-1.8-0.4-2.7V0H64.5v95.6c0,11.1-9.1,20.2-20.3,20.2c-3.3,0-6.4-0.8-9.1-2.2c3.7,4.9,9.5,8,16.1,8
		c11.2,0,20.2-9,20.3-20.2V5.8H88.9z M50.3,57.2v-5.4c-2-0.3-4-0.4-6.1-0.4C19.8,51.4,0,71.2,0,95.6c0,15.3,7.8,28.8,19.6,36.8
		c-7.8-8-12.6-18.9-12.6-30.9C7,77.3,26.3,57.7,50.3,57.2z"/>
	<path class="st0" d="M401.1,119.8c17.5,0,31.7-14.1,31.7-31.4c0-17.4-14.2-31.4-31.7-31.4h-4.8c17.5,0,31.7,14.1,31.7,31.4
		s-14.2,31.4-31.7,31.4H401.1z"/>
	<path class="st1" d="M395.9,57h-4.8c-17.5,0-31.7,14.1-31.7,31.4s14.2,31.4,31.7,31.4h4.8c-17.5,0-31.7-14.1-31.7-31.4
		C364.2,71.1,378.4,57,395.9,57z"/>
	<path d="M155,42.8v15.9h18.7v60.7h18.7V59.1h15.2l5.2-16.4L155,42.8L155,42.8z M307.8,42.8v15.9h18.7v60.7h18.7V59.1h15.2l5.2-16.4
		L307.8,42.8L307.8,42.8z M216.2,51.8c0-5,4.1-9,9.1-9c5,0,9.1,4,9.1,9c0,5-4.1,9-9.1,9C220.3,60.9,216.2,56.8,216.2,51.8z
		 M216.2,67.3h18.2v52.1h-18.2V67.3z M242.2,42.8v76.6h18.2V99.6l5.6-5.2l17.8,25.4h19.5l-25.6-37l23-22.4h-22.1l-18.2,18.1V42.8
		H242.2z M438.8,42.8v76.6H457V99.6l5.6-5.2l17.8,25.4H500l-25.6-37l23-22.4h-22.1L457,78.5V42.8H438.8z"/>
	<path d="M396.3,119.8c17.5,0,31.7-14.1,31.7-31.4c0-17.4-14.2-31.4-31.7-31.4h-0.4c-17.5,0-31.7,14.1-31.7,31.4
		s14.2,31.4,31.7,31.4H396.3z M380.7,88.4c0-8.4,6.9-15.3,15.4-15.3c8.5,0,15.4,6.8,15.4,15.3s-6.9,15.3-15.4,15.3
		C387.6,103.7,380.7,96.8,380.7,88.4z"/>
</g>
</svg>
