<?xml version="1.0" encoding="utf-8"?>
<!-- Generator: Adobe Illustrator 26.0.0, SVG Export Plug-In . SVG Version: 6.00 Build 0)  -->
<svg version="1.1" id="Capa_1" xmlns="http://www.w3.org/2000/svg" xmlns:xlink="http://www.w3.org/1999/xlink" x="0px" y="0px"
	 viewBox="0 0 163.3 114.3" style="enable-background:new 0 0 163.3 114.3;" xml:space="preserve">
<style type="text/css">
	.st0{fill:#FF0000;}
	.st1{fill:#FFFFFF;}
	.st2{fill:#282828;}
</style>
<g transform="matrix(5.715038, 0, 0, 5.715038, 409.288757, 277.787231)">
	<g>
		<path class="st0" d="M-43.6-45.5c-0.3-1.2-1.3-2.2-2.5-2.5c-2.2-0.6-11.2-0.6-11.2-0.6s-8.9,0-11.2,0.6c-1.2,0.3-2.2,1.3-2.5,2.5
			c-0.6,2.2-0.6,6.9-0.6,6.9s0,4.6,0.6,6.9c0.3,1.2,1.3,2.2,2.5,2.5c2.2,0.6,11.2,0.6,11.2,0.6s8.9,0,11.2-0.6
			c1.2-0.3,2.2-1.3,2.5-2.5C-43-34-43-38.6-43-38.6S-43-43.3-43.6-45.5z"/>
		<path class="st1" d="M-60.2-34.3l7.4-4.3l-7.4-4.3V-34.3z"/>
	</g>
	<g>
		<g id="youtube-paths">
			<path class="st2" d="M-37-35.6l-3.2-11.6h2.8l1.1,5.3c0.3,1.3,0.5,2.4,0.6,3.3h0.1c0.1-0.7,0.3-1.7,0.6-3.3l1.2-5.3h2.8
				l-3.2,11.6v5.6H-37L-37-35.6L-37-35.6z"/>
			<path class="st2" d="M-30.1-30.4c-0.6-0.4-1-1-1.2-1.8c-0.2-0.8-0.4-1.9-0.4-3.2v-1.8c0-1.3,0.1-2.4,0.4-3.2
				c0.3-0.8,0.7-1.4,1.3-1.8c0.6-0.4,1.3-0.6,2.3-0.6c0.9,0,1.7,0.2,2.2,0.6c0.6,0.4,1,1,1.2,1.8c0.3,0.8,0.4,1.9,0.4,3.2v1.8
				c0,1.3-0.1,2.4-0.4,3.2c-0.3,0.8-0.7,1.4-1.2,1.8c-0.6,0.4-1.3,0.6-2.3,0.6C-28.8-29.8-29.6-30-30.1-30.4z M-27-32.4
				c0.2-0.4,0.2-1.1,0.2-2v-3.9c0-0.9-0.1-1.6-0.2-2c-0.2-0.4-0.4-0.6-0.8-0.6c-0.4,0-0.7,0.2-0.8,0.6c-0.2,0.4-0.2,1.1-0.2,2v3.9
				c0,0.9,0.1,1.6,0.2,2c0.2,0.4,0.4,0.6,0.8,0.6C-27.4-31.8-27.1-32-27-32.4z"/>
			<path class="st2" d="M-14.8-30H-17l-0.2-1.5h-0.1c-0.6,1.2-1.5,1.7-2.7,1.7c-0.8,0-1.4-0.3-1.8-0.8c-0.4-0.5-0.6-1.4-0.6-2.6
				v-9.4h2.8v9.2c0,0.6,0.1,1,0.2,1.2c0.1,0.2,0.3,0.4,0.6,0.4c0.2,0,0.5-0.1,0.7-0.2c0.2-0.2,0.4-0.3,0.5-0.6v-10h2.8V-30z"/>
			<path class="st2" d="M-7.1-44.9h-2.8V-30h-2.8v-14.9h-2.8v-2.3h8.4V-44.9z"/>
			<path class="st2" d="M-0.3-30h-2.2l-0.2-1.5h-0.1c-0.6,1.2-1.5,1.7-2.7,1.7c-0.8,0-1.4-0.3-1.8-0.8C-7.8-31.2-8-32.1-8-33.2v-9.4
				h2.8v9.2c0,0.6,0.1,1,0.2,1.2c0.1,0.2,0.3,0.4,0.6,0.4c0.2,0,0.5-0.1,0.7-0.2c0.2-0.2,0.4-0.3,0.5-0.6v-10h2.8V-30z"/>
			<path class="st2" d="M9-40.6c-0.2-0.8-0.4-1.4-0.8-1.7c-0.4-0.4-0.9-0.5-1.6-0.5c-0.5,0-1,0.1-1.5,0.4c-0.4,0.3-0.8,0.7-1,1.2h0
				v-6.6H1.4V-30h2.3L4-31.2H4c0.2,0.4,0.5,0.8,1,1c0.4,0.2,0.9,0.4,1.5,0.4c1,0,1.7-0.4,2.1-1.3c0.4-0.9,0.7-2.3,0.7-4.1v-2
				C9.2-38.7,9.2-39.8,9-40.6z M6.4-35.5c0,0.9,0,1.6-0.1,2.1c-0.1,0.5-0.2,0.9-0.4,1.1c-0.2,0.2-0.4,0.3-0.7,0.3
				c-0.2,0-0.4-0.1-0.6-0.2c-0.2-0.1-0.4-0.3-0.5-0.5v-7.1c0.1-0.3,0.3-0.6,0.5-0.8c0.2-0.2,0.5-0.3,0.8-0.3c0.3,0,0.5,0.1,0.7,0.3
				c0.2,0.2,0.3,0.6,0.3,1.1c0.1,0.5,0.1,1.3,0.1,2.3L6.4-35.5L6.4-35.5z"/>
			<path class="st2" d="M13.2-34.7c0,0.8,0,1.4,0.1,1.8c0,0.4,0.1,0.7,0.3,0.9c0.2,0.2,0.4,0.3,0.7,0.3c0.4,0,0.7-0.2,0.9-0.5
				c0.2-0.3,0.2-0.9,0.3-1.6l2.4,0.1c0,0.1,0,0.3,0,0.4c0,1.2-0.3,2-1,2.6c-0.6,0.6-1.5,0.9-2.7,0.9c-1.4,0-2.4-0.4-2.9-1.3
				c-0.6-0.9-0.8-2.2-0.8-4v-2.2c0-1.9,0.3-3.3,0.9-4.1c0.6-0.9,1.6-1.3,3-1.3c1,0,1.7,0.2,2.2,0.5c0.5,0.4,0.9,0.9,1.1,1.7
				c0.2,0.8,0.3,1.8,0.3,3.1v2.1h-4.7V-34.7z M13.6-40.6c-0.1,0.2-0.2,0.5-0.3,0.9c0,0.4-0.1,1-0.1,1.8v0.9h2.1v-0.9
				c0-0.8,0-1.4-0.1-1.8c-0.1-0.4-0.2-0.7-0.3-0.9c-0.1-0.2-0.4-0.3-0.7-0.3C14-40.9,13.7-40.8,13.6-40.6z"/>
		</g>
	</g>
</g>
</svg>
